<svg width="229" height="168" viewBox="0 0 229 168" fill="none" xmlns="http://www.w3.org/2000/svg">
<g clip-path="url(#clip0_2801_636)">
<path d="M163.03 46.3726H229C225.161 51.5613 221.319 56.7501 217.48 61.9418C209.221 61.7876 200.187 61.1828 190.524 59.8752C185.453 59.1903 180.619 58.366 176.036 57.4468C187.855 60.6431 199.674 63.8364 211.496 67.0327L200.125 78.1159C195.838 75.9396 191.327 73.4608 186.659 70.6293C182.458 68.0794 178.569 65.5146 174.988 62.9914C181.173 69.1823 187.355 75.3703 193.54 81.5612L183.365 86.8033C181.762 85.4602 180.023 83.8265 178.279 81.8607C175.634 78.8838 173.699 75.9633 172.295 73.4757C172.432 75.6282 172.962 79.3078 175.139 83.2098C176.493 85.6351 178.068 87.4023 179.327 88.6001C177.68 89.5816 176.031 90.563 174.384 91.5444C170.216 91.4406 164.923 91.7015 158.954 92.9913C150.618 94.7911 144.119 97.9102 139.727 100.478C144.964 94.4412 152.037 84.8109 157.129 71.4743C160.823 61.8024 162.375 53.0557 163.03 46.3726Z" fill="#FFB800"/>
<path d="M115.18 104.709V104.769C115.18 104.769 115.153 104.751 115.141 104.739C115.153 104.73 115.168 104.721 115.18 104.709Z" fill="#FFB800"/>
<path d="M89.2759 100.475C84.8801 97.9073 78.3841 94.7881 70.0457 92.9883C64.077 91.6985 58.7837 91.4347 54.6159 91.5414C52.969 90.56 51.322 89.5786 49.6721 88.5971C50.934 87.3993 52.5099 85.6292 53.8635 83.2068C56.0407 79.3048 56.568 75.6253 56.7042 73.4697C55.3002 75.9603 53.3659 78.8808 50.7207 81.8577C48.976 83.8205 47.2372 85.4542 45.6347 86.8004L35.4598 81.5582L54.0117 62.9884C50.4334 65.5087 46.5441 68.0764 42.3408 70.6263C37.6755 73.4579 33.1612 75.9396 28.8779 78.1129L17.5062 67.0327C29.3252 63.8364 41.1441 60.6431 52.9631 57.4468C48.3806 58.363 43.5464 59.1873 38.4752 59.8752C28.8157 61.1827 19.7812 61.7876 11.5227 61.9388C7.68083 56.7501 3.8419 51.5613 0 46.3726H65.9698C66.6274 53.0557 68.1796 61.7995 71.8734 71.4713C76.9653 84.8079 84.0359 94.4412 89.2759 100.475Z" fill="#FFB800"/>
<path d="M165.669 119.359C165.536 118.935 165.337 118.443 165.047 117.921C164.718 117.328 164.395 116.91 164.25 116.738C163.527 115.849 162.677 115.262 161.987 114.879C161.184 115.644 160.257 116.456 159.206 117.266C158.225 118.022 157.28 118.662 156.395 119.22C156.824 119.555 157.313 120.006 157.769 120.607C157.769 120.607 158.261 121.257 158.708 122.238C158.77 122.378 158.815 122.496 158.815 122.496C158.871 122.647 158.915 122.793 158.954 122.938C158.989 123.08 159.016 123.22 159.043 123.359C159.043 123.362 159.037 123.365 159.04 123.368C159.167 124.183 159.046 124.865 158.954 125.224L158.924 125.331C158.563 124.035 157.541 122.959 156.143 122.597C154.052 122.048 151.916 123.306 151.371 125.399C151.199 126.045 151.205 126.698 151.347 127.308C151.38 127.43 151.415 127.557 151.46 127.682C151.587 128.067 151.756 128.444 151.969 128.806C152.591 129.87 153.492 130.659 154.528 131.145C154.537 131.151 154.552 131.157 154.564 131.163C154.991 131.385 155.438 131.533 155.906 131.605C155.927 131.605 155.956 131.611 155.977 131.611C156.771 131.711 157.494 131.569 158.107 131.323H158.11C159.167 130.908 159.878 130.226 160.017 130.084C160.005 130.211 159.964 130.57 159.813 131C159.623 131.528 159.277 132.177 158.619 132.678C158.373 132.868 158.121 133.007 157.89 133.111H157.885C157.387 133.229 156.88 133.301 156.362 133.333C155.461 133.384 154.531 133.292 153.61 133.052C153.542 133.034 153.465 133.016 153.397 132.992C153.249 132.969 153.092 132.936 152.938 132.897C152.443 132.767 151.975 132.568 151.56 132.31C151.368 131.142 150.959 129.986 150.322 128.901C149.472 127.445 148.311 126.288 146.966 125.461C146.96 125.337 146.948 125.2 146.925 125.058C146.928 125.046 146.925 125.037 146.925 125.028C146.862 124.56 146.735 124.017 146.492 123.436C146.415 123.258 146.326 123.086 146.243 122.929C145.689 122.802 145.121 122.662 144.54 122.511C143.933 122.351 143.346 122.188 142.775 122.022V122.013L139.892 121.257C139.762 121.633 139.694 121.965 139.656 122.22C138.702 121.286 136.791 119.421 136.714 119.344C136.51 119.146 133.305 116.012 133.302 116.009C132.081 114.817 130.698 113.465 129.25 112.05C129.267 112.092 129.282 112.122 129.291 112.139C128.011 110.876 126.729 109.613 125.446 108.353C125.242 108.504 125.037 108.685 124.839 108.905C124.658 109.103 124.51 109.308 124.386 109.509C126.113 113.124 128.133 116.969 130.503 120.954C133.598 126.167 136.773 130.76 139.824 134.756C139.51 137.17 139.199 139.586 138.888 142.003C133.758 136.87 128.63 131.738 123.503 126.603C125.591 129.577 127.718 132.802 129.83 136.292C132.176 140.165 134.232 143.909 136.033 147.467L126.853 156.905C124.205 147.094 121.56 137.286 118.915 127.474C119.673 131.278 120.357 135.29 120.923 139.5C122.007 147.518 122.508 155.016 122.635 161.874C120.002 163.873 117.368 165.868 114.735 167.867C114.676 167.911 114.62 167.956 114.56 168H114.486C114.365 167.908 114.24 167.813 114.119 167.721C111.548 165.77 108.98 163.825 106.411 161.874C106.539 155.016 107.039 147.518 108.121 139.5C108.689 135.29 109.374 131.278 110.132 127.474C107.487 137.286 104.839 147.094 102.193 156.905L93.0107 147.467C94.8147 143.909 96.8704 140.165 99.2134 136.292C101.325 132.802 103.452 129.577 105.544 126.603L90.1582 142.003C89.8442 139.586 89.5332 137.17 89.2221 134.756C92.2702 130.76 95.4456 126.167 98.544 120.954C100.908 116.969 102.931 113.127 104.661 109.512C104.536 109.311 104.385 109.106 104.205 108.905C104.006 108.685 103.802 108.504 103.597 108.353C102.315 109.613 101.032 110.876 99.7526 112.139C99.7614 112.122 99.7733 112.095 99.7911 112.056C98.3426 113.468 96.9622 114.817 95.7448 116.009C95.7389 116.012 92.5338 119.146 92.3324 119.344C92.2554 119.421 90.3448 121.286 89.391 122.22C89.3495 121.965 89.2814 121.633 89.154 121.257L86.2719 122.013V122.022C85.7002 122.188 85.1107 122.351 84.5064 122.511C83.9259 122.662 83.3571 122.802 82.8002 122.929C82.7173 123.086 82.6314 123.258 82.5544 123.436C82.3085 124.017 82.1812 124.56 82.1189 125.028C82.1219 125.037 82.1189 125.046 82.1189 125.058C82.0982 125.2 82.0864 125.337 82.0804 125.461C80.7356 126.288 79.5745 127.445 78.7214 128.901C78.0845 129.986 77.6787 131.142 77.4862 132.31C77.0685 132.568 76.6034 132.767 76.1058 132.897C75.9547 132.936 75.7948 132.969 75.6467 132.992C75.5815 133.016 75.5045 133.034 75.4364 133.052C74.5151 133.292 73.5821 133.384 72.6816 133.333C72.1632 133.301 71.6567 133.229 71.162 133.114H71.1531C70.9221 133.007 70.6732 132.868 70.4244 132.678C69.7698 132.177 69.4203 131.528 69.2336 131C69.0826 130.57 69.0411 130.211 69.0263 130.084C69.1685 130.226 69.8794 130.908 70.9339 131.323H70.9398C71.553 131.569 72.2728 131.711 73.0666 131.611C73.0903 131.611 73.117 131.605 73.1377 131.605C73.6058 131.533 74.056 131.385 74.4796 131.163C74.4944 131.157 74.5062 131.151 74.5151 131.145C75.5548 130.659 76.4553 129.87 77.0774 128.806C77.2907 128.444 77.4595 128.067 77.5869 127.682C77.6283 127.557 77.6668 127.43 77.6965 127.308C77.8386 126.698 77.8446 126.045 77.6757 125.399C77.1307 123.306 74.995 122.048 72.9008 122.597C71.5026 122.959 70.4807 124.035 70.1193 125.331L70.0897 125.224C70.0008 124.865 69.8794 124.183 70.0038 123.368C70.0068 123.365 70.0038 123.362 70.0038 123.359C70.0305 123.22 70.0571 123.08 70.0897 122.938C70.1312 122.793 70.1756 122.647 70.2319 122.496C70.2319 122.496 70.2763 122.378 70.3385 122.238C70.7828 121.257 71.2746 120.607 71.2746 120.607C71.7307 120.006 72.2224 119.555 72.6519 119.22C71.7633 118.662 70.8213 118.022 69.8409 117.266C68.7864 116.456 67.8622 115.644 67.0565 114.879C66.3693 115.262 65.5191 115.849 64.7934 116.738C64.6483 116.91 64.3254 117.328 63.9966 117.921C63.7093 118.443 63.5108 118.935 63.3745 119.359C62.9658 117.983 63.105 116.445 63.884 115.11C64.4291 114.185 65.2081 113.48 66.1086 113.029C66.1086 113.023 66.1115 113.026 66.1115 113.023C66.1797 113.011 66.2478 112.996 66.3159 112.984C67.6637 112.723 68.8189 112.783 69.6069 112.884C70.5251 113.625 71.553 114.396 72.6934 115.176C72.7971 115.244 72.8919 115.312 72.9956 115.377C73.1259 115.463 73.2592 115.555 73.3954 115.641C74.838 116.593 76.4524 117.539 78.2533 118.422C79.0827 118.834 79.8973 119.202 80.6882 119.537C81.5828 119.424 82.504 119.294 83.4489 119.143C84.3405 118.997 85.2025 118.843 86.0378 118.68L88.3779 117.82C90.4899 114.452 92.6908 110.408 94.6488 105.682C95.9729 102.491 96.9889 99.461 97.7768 96.6739C96.8378 95.989 95.6026 95.4286 94.1719 95.6036C91.9681 95.8704 90.0338 97.7947 89.2725 100.475C86.731 96.3003 85.1433 92.4933 84.1362 89.5787C83.3364 87.2749 82.193 83.8977 81.7042 79.3969C81.6361 78.7623 81.3695 76.1472 81.4821 72.6871C81.5384 70.9466 81.6746 69.4611 81.8109 68.3255L79.3316 72.2986V57.7701C81.8701 57.0971 86.337 55.4604 89.628 51.3123C91.115 49.4385 93.4876 46.4468 92.4805 43.3632C91.8259 41.3618 89.9479 39.9475 88.141 39.5146C84.9448 38.7496 81.1266 40.8459 79.3316 44.8546V36.7838C79.7789 36.7927 81.5858 36.7809 83.1764 35.417C84.9952 33.8574 85.1433 31.7226 85.1611 31.3519C96.1002 31.6751 104.163 31.604 106.5 31.3519C108.266 31.1622 109.812 30.6611 109.812 30.6611C110.988 30.2786 111.924 29.819 112.579 29.4543C111.859 30.2579 110.772 31.3193 109.261 32.2978C108.906 32.5261 107.516 33.4037 105.259 34.1746C103.864 34.649 101.743 35.2213 99.0091 35.3755L107.866 35.1679C107.724 36.7868 107.685 39.5413 108.701 42.7287C109.341 44.733 110.224 46.3578 111.062 47.6031C111.468 48.122 112.407 49.1835 114.003 49.8565C114.178 49.9307 114.35 49.9959 114.519 50.0493C114.688 49.9959 114.862 49.9307 115.037 49.8565C116.61 49.1924 117.549 48.1487 117.961 47.6239C118.805 46.3756 119.694 44.7419 120.336 42.7287C121.355 39.5413 121.317 36.7868 121.175 35.1679L130.032 35.3755C127.297 35.2213 125.174 34.649 123.778 34.1746C121.521 33.4037 120.132 32.5261 119.777 32.2978C118.266 31.3193 117.179 30.2579 116.459 29.4543C117.114 29.819 118.053 30.2786 119.229 30.6611C119.229 30.6611 120.775 31.1622 122.54 31.3519C124.877 31.604 132.937 31.6751 143.88 31.3519C143.897 31.7226 144.045 33.8574 145.864 35.417C147.452 36.7809 149.262 36.7927 149.709 36.7838V44.8546C147.911 40.8459 144.096 38.7496 140.9 39.5146C139.09 39.9475 137.212 41.3618 136.557 43.3632C135.55 46.4468 137.923 49.4385 139.41 51.3123C142.704 55.4604 147.17 57.0971 149.709 57.7701V72.2986L147.227 68.3255C147.363 69.4611 147.502 70.9466 147.558 72.6871C147.671 76.1472 147.402 78.7623 147.333 79.3969C146.848 83.8977 145.701 87.2749 144.904 89.5787C143.894 92.4933 142.31 96.3003 139.765 100.475C139.004 97.7947 137.073 95.8704 134.866 95.6036C133.432 95.4286 132.2 95.992 131.261 96.6769C132.049 99.464 133.068 102.491 134.389 105.682C136.347 110.408 138.548 114.452 140.66 117.82L143.003 118.68C143.838 118.843 144.7 118.997 145.589 119.143C146.537 119.294 147.455 119.424 148.349 119.537C149.14 119.202 149.955 118.834 150.787 118.422C152.585 117.539 154.203 116.593 155.642 115.641H155.645C155.781 115.555 155.915 115.463 156.045 115.377C156.152 115.312 156.246 115.244 156.347 115.176C157.488 114.396 158.518 113.625 159.434 112.884C160.225 112.783 161.38 112.723 162.725 112.984C162.793 112.996 162.864 113.011 162.929 113.023C162.932 113.026 162.935 113.023 162.935 113.029C163.832 113.48 164.614 114.185 165.157 115.11C165.939 116.445 166.075 117.983 165.666 119.359H165.669Z" fill="#FFB800"/>
<path d="M115.141 104.739C115.141 104.739 115.117 104.76 115.105 104.769V104.712C115.105 104.712 115.129 104.73 115.141 104.739Z" fill="#FFB800"/>
<path d="M124.407 9.91727L114.5 0.000488281L104.593 9.91728L114.5 19.8341L124.407 9.91727Z" fill="#FF2E00"/>
</g>
<defs>
<clipPath id="clip0_2801_636">
<rect width="229" height="168" fill="white"/>
</clipPath>
</defs>
</svg>
