<svg width="400" height="400" viewBox="0 0 400 400" fill="none" xmlns="http://www.w3.org/2000/svg">
<g clip-path="url(#clip0_3914_3222)">
<path d="M375 0H25C11.1929 0 0 11.1929 0 25V375C0 388.807 11.1929 400 25 400H375C388.807 400 400 388.807 400 375V25C400 11.1929 388.807 0 375 0Z" fill="#0F0F0E"/>
<path d="M120.004 320.004C142.095 320.004 160.004 302.095 160.004 280.004C160.004 257.913 142.095 240.004 120.004 240.004C97.9125 240.004 80.0039 257.913 80.0039 280.004C80.0039 302.095 97.9125 320.004 120.004 320.004Z" fill="#FDFDF8"/>
<path d="M294.998 80.0039H184.998C171.191 80.0039 159.998 91.1968 159.998 105.004V115.004C159.998 128.811 171.191 140.004 184.998 140.004H294.998C308.805 140.004 319.998 128.811 319.998 115.004V105.004C319.998 91.1968 308.805 80.0039 294.998 80.0039Z" fill="#FDFDF8"/>
</g>
<defs>
<clipPath id="clip0_3914_3222">
<rect width="400" height="400" fill="white"/>
</clipPath>
</defs>
</svg>
