<svg width="400" height="331" viewBox="0 0 400 331" fill="none" xmlns="http://www.w3.org/2000/svg">
<path d="M52.9295 330.999C48.5483 330.999 44.2157 329.036 41.3366 325.29C14.2981 290.064 0 247.583 0 202.435C0 148.328 20.7935 97.4862 58.5417 59.2728C96.3107 21.0525 146.549 0 200 0C253.451 0 303.689 21.0525 341.458 59.2728C379.213 97.4792 400 148.328 400 202.435C400 247.583 385.702 290.064 358.656 325.29C353.74 331.688 344.574 332.893 338.176 327.971C331.778 323.049 330.582 313.873 335.498 307.468C358.587 277.4 370.792 241.08 370.792 202.435C370.792 106.933 294.176 29.2396 200 29.2396C105.824 29.2396 29.2082 106.933 29.2082 202.435C29.2082 241.08 41.4131 277.4 64.5015 307.468C69.4183 313.873 68.2152 323.049 61.8241 327.971C59.1745 330.011 56.0381 330.999 52.9365 330.999H52.9295Z" fill="#E50914"/>
<path d="M297.84 292.94C294.711 292.94 291.561 291.937 288.897 289.87C282.527 284.92 281.372 275.737 286.317 269.353C301.13 250.257 308.953 227.116 308.953 202.443C308.953 141.465 260.057 91.8481 199.958 91.8481C139.859 91.8481 90.9625 141.458 90.9625 202.443C90.9625 227.123 98.7931 250.257 113.606 269.353C118.55 275.73 117.396 284.913 111.026 289.87C104.656 294.82 95.4828 293.664 90.5313 287.287C71.7059 263.011 61.7543 233.674 61.7543 202.443C61.7543 165.045 76.115 129.922 102.194 103.544C128.286 77.1517 163.003 62.6155 199.958 62.6155C236.913 62.6155 271.629 77.1517 297.722 103.544C323.801 129.922 338.162 165.052 338.162 202.443C338.162 233.674 328.21 263.018 309.385 287.287C306.505 290.998 302.194 292.94 297.84 292.94Z" fill="#E50914"/>
<path d="M248.851 255.123C245.722 255.123 242.571 254.121 239.908 252.053C233.538 247.103 232.383 237.92 237.328 231.536C243.733 223.28 247.113 213.22 247.113 202.436C247.113 175.974 225.943 154.448 199.92 154.448C173.897 154.448 152.728 175.974 152.728 202.436C152.728 213.22 156.115 223.28 162.513 231.536C167.457 237.913 166.303 247.096 159.933 252.053C153.563 257.003 144.39 255.847 139.438 249.47C129.174 236.229 123.513 219.527 123.513 202.436C123.513 159.851 157.784 125.209 199.913 125.209C242.043 125.209 276.314 159.851 276.314 202.436C276.314 219.52 270.66 236.229 260.388 249.463C257.509 253.174 253.198 255.116 248.844 255.116L248.851 255.123Z" fill="#E50914"/>
<path d="M200.001 221.232C209.388 221.232 216.998 213.632 216.998 204.258C216.998 194.883 209.388 187.283 200.001 187.283C190.613 187.283 183.003 194.883 183.003 204.258C183.003 213.632 190.613 221.232 200.001 221.232Z" fill="#E50914"/>
</svg>
