<svg width="353" height="400" viewBox="0 0 353 400" fill="none" xmlns="http://www.w3.org/2000/svg">
<g clip-path="url(#clip0_3914_3190)">
<path d="M258.952 171.464C246.562 175.743 224.225 180.816 193.332 173.796C197.177 188.665 211.075 249.563 176.932 309.096C146.694 361.831 89.2552 395.195 25.0256 399.37C11.4783 400.245 0 389.586 0 376.082V23.3236C0 10.449 10.4965 0 23.4359 0H328.968C342.667 0 353.514 11.6618 352.334 25.2478C346.069 96.9446 309.892 153.889 258.964 171.464H258.952Z" fill="url(#paint0_linear_3914_3190)"/>
<path d="M352.999 147.5V376.678C352.999 389.564 342.538 400.001 329.622 400.001H116.91C148.271 389.576 211.192 363.861 267.672 303.208C323.509 243.255 344.712 179.593 352.999 147.5Z" fill="url(#paint1_linear_3914_3190)"/>
</g>
<defs>
<linearGradient id="paint0_linear_3914_3190" x1="0" y1="0" x2="204.412" y2="204.446" gradientUnits="userSpaceOnUse">
<stop stop-color="#879AF3"/>
<stop offset="1" stop-color="#AF7199"/>
</linearGradient>
<linearGradient id="paint1_linear_3914_3190" x1="352.56" y1="390.736" x2="263.296" y2="301.457" gradientUnits="userSpaceOnUse">
<stop stop-color="#FFD8C2"/>
<stop offset="1" stop-color="#FE645E"/>
</linearGradient>
<clipPath id="clip0_3914_3190">
<rect width="353" height="400" fill="white"/>
</clipPath>
</defs>
</svg>
